<mxfile host="app.diagrams.net" modified="2024-07-18T06:54:34.646Z" agent="Mozilla/5.0 (Macintosh; Intel Mac OS X 10_15_7) AppleWebKit/537.36 (KHTML, like Gecko) Chrome/126.0.0.0 Safari/537.36 Edg/126.0.0.0" etag="tktvuxORhQ_UFALkW1q_" version="24.7.0" type="device">
  <diagram id="zDsPzL7swtXNuPbnN6ik" name="1">
    <mxGraphModel dx="1194" dy="414" grid="1" gridSize="10" guides="1" tooltips="1" connect="1" arrows="1" fold="1" page="0" pageScale="1" pageWidth="1654" pageHeight="1169" math="0" shadow="0">
      <root>
        <mxCell id="0" />
        <mxCell id="1" style="" parent="0" />
        <mxCell id="gOpEw_y_hM4aPBm2tubq-5" value="overview" style="" parent="0" />
        <mxCell id="gOpEw_y_hM4aPBm2tubq-6" value="" style="rounded=1;whiteSpace=wrap;html=1;fillColor=#18794e;strokeColor=none;fontColor=#FFFFFF;align=center;verticalAlign=middle;fontFamily=Helvetica;fontSize=14;arcSize=6;fontStyle=1" parent="gOpEw_y_hM4aPBm2tubq-5" vertex="1">
          <mxGeometry x="400" y="600" width="260" height="200" as="geometry" />
        </mxCell>
        <mxCell id="gOpEw_y_hM4aPBm2tubq-7" value="JDBC" style="rounded=1;whiteSpace=wrap;html=1;fillColor=#313641;fontColor=#FFFFFF;strokeColor=none;align=center;verticalAlign=middle;arcSize=17;fontFamily=Helvetica;fontSize=14;fontStyle=1" parent="gOpEw_y_hM4aPBm2tubq-5" vertex="1">
          <mxGeometry x="420" y="630" width="100" height="40" as="geometry" />
        </mxCell>
        <mxCell id="gOpEw_y_hM4aPBm2tubq-8" value="ORM" style="rounded=1;whiteSpace=wrap;html=1;fillColor=#313641;fontColor=#FFFFFF;strokeColor=none;align=center;verticalAlign=middle;arcSize=17;fontFamily=Helvetica;fontSize=14;fontStyle=1" parent="gOpEw_y_hM4aPBm2tubq-5" vertex="1">
          <mxGeometry x="540" y="630" width="100" height="40" as="geometry" />
        </mxCell>
        <mxCell id="gOpEw_y_hM4aPBm2tubq-9" value="OXM" style="rounded=1;whiteSpace=wrap;html=1;fillColor=#313641;fontColor=#FFFFFF;strokeColor=none;align=center;verticalAlign=middle;arcSize=17;fontFamily=Helvetica;fontSize=14;fontStyle=1" parent="gOpEw_y_hM4aPBm2tubq-5" vertex="1">
          <mxGeometry x="420" y="680" width="100" height="40" as="geometry" />
        </mxCell>
        <mxCell id="gOpEw_y_hM4aPBm2tubq-10" value="JMS" style="rounded=1;whiteSpace=wrap;html=1;fillColor=#313641;fontColor=#FFFFFF;strokeColor=none;align=center;verticalAlign=middle;arcSize=17;fontFamily=Helvetica;fontSize=14;fontStyle=1" parent="gOpEw_y_hM4aPBm2tubq-5" vertex="1">
          <mxGeometry x="540" y="680" width="100" height="40" as="geometry" />
        </mxCell>
        <mxCell id="gOpEw_y_hM4aPBm2tubq-11" value="Transactions" style="rounded=1;whiteSpace=wrap;html=1;fillColor=#313641;fontColor=#FFFFFF;strokeColor=none;align=center;verticalAlign=middle;arcSize=17;fontFamily=Helvetica;fontSize=14;fontStyle=1" parent="gOpEw_y_hM4aPBm2tubq-5" vertex="1">
          <mxGeometry x="420" y="740" width="220" height="40" as="geometry" />
        </mxCell>
        <mxCell id="gOpEw_y_hM4aPBm2tubq-12" value="" style="rounded=1;whiteSpace=wrap;html=1;fillColor=#18794e;strokeColor=none;fontColor=#FFFFFF;align=center;verticalAlign=middle;fontFamily=Helvetica;fontSize=14;arcSize=6;fontStyle=1" parent="gOpEw_y_hM4aPBm2tubq-5" vertex="1">
          <mxGeometry x="680" y="600" width="260" height="200" as="geometry" />
        </mxCell>
        <mxCell id="gOpEw_y_hM4aPBm2tubq-13" value="Web Servlet" style="rounded=1;whiteSpace=wrap;html=1;fillColor=#313641;fontColor=#FFFFFF;strokeColor=none;align=center;verticalAlign=middle;arcSize=17;fontFamily=Helvetica;fontSize=14;fontStyle=1" parent="gOpEw_y_hM4aPBm2tubq-5" vertex="1">
          <mxGeometry x="700" y="630" width="100" height="40" as="geometry" />
        </mxCell>
        <mxCell id="gOpEw_y_hM4aPBm2tubq-14" value="Web Reactive" style="rounded=1;whiteSpace=wrap;html=1;fillColor=#313641;fontColor=#FFFFFF;strokeColor=none;align=center;verticalAlign=middle;arcSize=17;fontFamily=Helvetica;fontSize=14;fontStyle=1" parent="gOpEw_y_hM4aPBm2tubq-5" vertex="1">
          <mxGeometry x="810" y="630" width="110" height="40" as="geometry" />
        </mxCell>
        <mxCell id="gOpEw_y_hM4aPBm2tubq-15" value="Instrumentation" style="rounded=1;whiteSpace=wrap;html=1;fillColor=#18794e;strokeColor=none;fontColor=#FFFFFF;align=center;verticalAlign=middle;fontFamily=Helvetica;fontSize=14;fontStyle=1" parent="gOpEw_y_hM4aPBm2tubq-5" vertex="1">
          <mxGeometry x="680" y="810" width="120" height="60" as="geometry" />
        </mxCell>
        <mxCell id="gOpEw_y_hM4aPBm2tubq-16" value="AOP" style="rounded=1;whiteSpace=wrap;html=1;fillColor=#18794e;strokeColor=none;fontColor=#FFFFFF;align=center;verticalAlign=middle;fontFamily=Helvetica;fontSize=14;fontStyle=1" parent="gOpEw_y_hM4aPBm2tubq-5" vertex="1">
          <mxGeometry x="400" y="810" width="120" height="60" as="geometry" />
        </mxCell>
        <mxCell id="gOpEw_y_hM4aPBm2tubq-17" value="Aspects" style="rounded=1;whiteSpace=wrap;html=1;fillColor=#18794e;strokeColor=none;fontColor=#FFFFFF;align=center;verticalAlign=middle;fontFamily=Helvetica;fontSize=14;fontStyle=1" parent="gOpEw_y_hM4aPBm2tubq-5" vertex="1">
          <mxGeometry x="540" y="810" width="120" height="60" as="geometry" />
        </mxCell>
        <mxCell id="gOpEw_y_hM4aPBm2tubq-18" value="Messaging" style="rounded=1;whiteSpace=wrap;html=1;fillColor=#18794e;strokeColor=none;fontColor=#FFFFFF;align=center;verticalAlign=middle;fontFamily=Helvetica;fontSize=14;fontStyle=1" parent="gOpEw_y_hM4aPBm2tubq-5" vertex="1">
          <mxGeometry x="820" y="810" width="120" height="60" as="geometry" />
        </mxCell>
        <mxCell id="gOpEw_y_hM4aPBm2tubq-19" value="Test" style="rounded=1;whiteSpace=wrap;html=1;fillColor=#18794e;strokeColor=none;fontColor=#FFFFFF;align=center;verticalAlign=middle;fontFamily=Helvetica;fontSize=14;fontStyle=1" parent="gOpEw_y_hM4aPBm2tubq-5" vertex="1">
          <mxGeometry x="400" y="980" width="540" height="40" as="geometry" />
        </mxCell>
        <mxCell id="gOpEw_y_hM4aPBm2tubq-20" value="" style="rounded=1;whiteSpace=wrap;html=1;fillColor=#18794e;strokeColor=none;fontColor=#FFFFFF;align=center;verticalAlign=middle;fontFamily=Helvetica;fontSize=14;arcSize=6;fontStyle=1" parent="gOpEw_y_hM4aPBm2tubq-5" vertex="1">
          <mxGeometry x="400" y="880" width="540" height="90" as="geometry" />
        </mxCell>
        <mxCell id="gOpEw_y_hM4aPBm2tubq-21" value="Beans" style="rounded=1;whiteSpace=wrap;html=1;fillColor=#313641;fontColor=#FFFFFF;strokeColor=none;align=center;verticalAlign=middle;arcSize=17;fontFamily=Helvetica;fontSize=14;fontStyle=1" parent="gOpEw_y_hM4aPBm2tubq-5" vertex="1">
          <mxGeometry x="440" y="910" width="100" height="40" as="geometry" />
        </mxCell>
        <mxCell id="gOpEw_y_hM4aPBm2tubq-22" value="Core" style="rounded=1;whiteSpace=wrap;html=1;fillColor=#313641;fontColor=#FFFFFF;strokeColor=none;align=center;verticalAlign=middle;arcSize=17;fontFamily=Helvetica;fontSize=14;fontStyle=1" parent="gOpEw_y_hM4aPBm2tubq-5" vertex="1">
          <mxGeometry x="560" y="910" width="100" height="40" as="geometry" />
        </mxCell>
        <mxCell id="gOpEw_y_hM4aPBm2tubq-23" value="Context" style="rounded=1;whiteSpace=wrap;html=1;fillColor=#313641;fontColor=#FFFFFF;strokeColor=none;align=center;verticalAlign=middle;arcSize=17;fontFamily=Helvetica;fontSize=14;fontStyle=1" parent="gOpEw_y_hM4aPBm2tubq-5" vertex="1">
          <mxGeometry x="680" y="910" width="100" height="40" as="geometry" />
        </mxCell>
        <mxCell id="gOpEw_y_hM4aPBm2tubq-24" value="SpEL" style="rounded=1;whiteSpace=wrap;html=1;fillColor=#313641;fontColor=#FFFFFF;strokeColor=none;align=center;verticalAlign=middle;arcSize=17;fontFamily=Helvetica;fontSize=14;fontStyle=1" parent="gOpEw_y_hM4aPBm2tubq-5" vertex="1">
          <mxGeometry x="800" y="910" width="100" height="40" as="geometry" />
        </mxCell>
        <mxCell id="gOpEw_y_hM4aPBm2tubq-25" value="Spring MVC" style="rounded=1;whiteSpace=wrap;html=1;fillColor=#313641;fontColor=#FFFFFF;strokeColor=none;align=center;verticalAlign=middle;arcSize=17;fontFamily=Helvetica;fontSize=14;fontStyle=1" parent="gOpEw_y_hM4aPBm2tubq-5" vertex="1">
          <mxGeometry x="700" y="680" width="100" height="40" as="geometry" />
        </mxCell>
        <mxCell id="gOpEw_y_hM4aPBm2tubq-26" value="Spring WebFlux" style="rounded=1;whiteSpace=wrap;html=1;fillColor=#313641;fontColor=#FFFFFF;strokeColor=none;align=center;verticalAlign=middle;arcSize=17;fontFamily=Helvetica;fontSize=14;fontStyle=1" parent="gOpEw_y_hM4aPBm2tubq-5" vertex="1">
          <mxGeometry x="810" y="680" width="110" height="40" as="geometry" />
        </mxCell>
        <mxCell id="gOpEw_y_hM4aPBm2tubq-27" value="WebSocket" style="rounded=1;whiteSpace=wrap;html=1;fillColor=#313641;fontColor=#FFFFFF;strokeColor=none;align=center;verticalAlign=middle;arcSize=17;fontFamily=Helvetica;fontSize=14;fontStyle=1" parent="gOpEw_y_hM4aPBm2tubq-5" vertex="1">
          <mxGeometry x="700" y="740" width="220" height="40" as="geometry" />
        </mxCell>
        <mxCell id="gOpEw_y_hM4aPBm2tubq-28" value="Core Container" style="text;html=1;align=center;verticalAlign=middle;resizable=0;points=[];autosize=1;strokeColor=none;fillColor=none;fontSize=14;fontColor=#FFFFFF;fontStyle=1" parent="gOpEw_y_hM4aPBm2tubq-5" vertex="1">
          <mxGeometry x="610" y="880" width="120" height="30" as="geometry" />
        </mxCell>
        <mxCell id="gOpEw_y_hM4aPBm2tubq-29" value="Data Access/Integration" style="text;html=1;align=center;verticalAlign=middle;resizable=0;points=[];autosize=1;strokeColor=none;fillColor=none;fontSize=14;fontColor=#FFFFFF;fontStyle=1" parent="gOpEw_y_hM4aPBm2tubq-5" vertex="1">
          <mxGeometry x="445" y="600" width="170" height="30" as="geometry" />
        </mxCell>
        <mxCell id="gOpEw_y_hM4aPBm2tubq-30" value="Web" style="text;html=1;align=center;verticalAlign=middle;resizable=0;points=[];autosize=1;strokeColor=none;fillColor=none;fontSize=14;fontColor=#FFFFFF;fontStyle=1" parent="gOpEw_y_hM4aPBm2tubq-5" vertex="1">
          <mxGeometry x="785" y="600" width="50" height="30" as="geometry" />
        </mxCell>
        <mxCell id="Pjg2e5uPfASdKVTmNV2D-60" value="1" style="" parent="0" />
        <mxCell id="Pjg2e5uPfASdKVTmNV2D-63" value="" style="rounded=1;whiteSpace=wrap;html=1;fillColor=#30a46c;strokeColor=none;arcSize=1;opacity=50;" parent="Pjg2e5uPfASdKVTmNV2D-60" vertex="1">
          <mxGeometry x="400" y="1080" width="590" height="390" as="geometry" />
        </mxCell>
        <mxCell id="Pjg2e5uPfASdKVTmNV2D-85" value="Tomcat Servlet Container" style="text;html=1;align=center;verticalAlign=middle;resizable=0;points=[];autosize=1;strokeColor=none;fillColor=none;fontSize=14;fontStyle=3;fontColor=#FFFFFF;" parent="Pjg2e5uPfASdKVTmNV2D-60" vertex="1">
          <mxGeometry x="400" y="1440" width="180" height="30" as="geometry" />
        </mxCell>
        <mxCell id="Lj4fa0QAqTEDwXu7EgTQ-1" value="" style="rounded=1;whiteSpace=wrap;html=1;fillColor=#30a46c;strokeColor=none;arcSize=1;opacity=50;" parent="Pjg2e5uPfASdKVTmNV2D-60" vertex="1">
          <mxGeometry x="400" y="1560" width="590" height="390" as="geometry" />
        </mxCell>
        <mxCell id="Lj4fa0QAqTEDwXu7EgTQ-2" value="Tomcat Servlet Container" style="text;html=1;align=center;verticalAlign=middle;resizable=0;points=[];autosize=1;strokeColor=none;fillColor=none;fontSize=14;fontStyle=3;fontColor=#FFFFFF;" parent="Pjg2e5uPfASdKVTmNV2D-60" vertex="1">
          <mxGeometry x="400" y="1920" width="180" height="30" as="geometry" />
        </mxCell>
        <mxCell id="Lj4fa0QAqTEDwXu7EgTQ-27" value="" style="rounded=1;whiteSpace=wrap;html=1;fillColor=#30a46c;strokeColor=none;arcSize=1;opacity=50;" parent="Pjg2e5uPfASdKVTmNV2D-60" vertex="1">
          <mxGeometry x="400" y="2060" width="590" height="320" as="geometry" />
        </mxCell>
        <mxCell id="Lj4fa0QAqTEDwXu7EgTQ-28" value="Tomcat Servlet Container" style="text;html=1;align=center;verticalAlign=middle;resizable=0;points=[];autosize=1;strokeColor=none;fillColor=none;fontSize=14;fontStyle=3;fontColor=#FFFFFF;" parent="Pjg2e5uPfASdKVTmNV2D-60" vertex="1">
          <mxGeometry x="400" y="2350" width="180" height="30" as="geometry" />
        </mxCell>
        <mxCell id="Lj4fa0QAqTEDwXu7EgTQ-50" value="" style="rounded=1;whiteSpace=wrap;html=1;fillColor=#30a46c;strokeColor=none;arcSize=1;opacity=50;" parent="Pjg2e5uPfASdKVTmNV2D-60" vertex="1">
          <mxGeometry x="400" y="2440" width="590" height="320" as="geometry" />
        </mxCell>
        <mxCell id="Lj4fa0QAqTEDwXu7EgTQ-51" value="Application Server (e.g. WebSphere, WebLogic, JBoss)" style="text;html=1;align=center;verticalAlign=middle;resizable=0;points=[];autosize=1;strokeColor=none;fillColor=none;fontSize=14;fontStyle=3;fontColor=#FFFFFF;" parent="Pjg2e5uPfASdKVTmNV2D-60" vertex="1">
          <mxGeometry x="400" y="2730" width="370" height="30" as="geometry" />
        </mxCell>
        <mxCell id="Pjg2e5uPfASdKVTmNV2D-61" value="2" style="" parent="0" />
        <mxCell id="Pjg2e5uPfASdKVTmNV2D-64" value="" style="rounded=1;whiteSpace=wrap;html=1;fillColor=#18794E;arcSize=4;strokeColor=none;fontColor=#FFFFFF;fontSize=14;" parent="Pjg2e5uPfASdKVTmNV2D-61" vertex="1">
          <mxGeometry x="450" y="1130" width="490" height="310" as="geometry" />
        </mxCell>
        <mxCell id="Pjg2e5uPfASdKVTmNV2D-65" value="Web" style="rounded=1;whiteSpace=wrap;html=1;fillColor=#313641;fontStyle=1;strokeColor=none;fontColor=#FFFFFF;fontSize=14;" parent="Pjg2e5uPfASdKVTmNV2D-61" vertex="1">
          <mxGeometry x="470" y="1160" width="210" height="40" as="geometry" />
        </mxCell>
        <mxCell id="Pjg2e5uPfASdKVTmNV2D-66" value="Servlet" style="rounded=1;whiteSpace=wrap;html=1;fillColor=#313641;fontStyle=1;strokeColor=none;fontColor=#FFFFFF;fontSize=14;" parent="Pjg2e5uPfASdKVTmNV2D-61" vertex="1">
          <mxGeometry x="710" y="1160" width="210" height="40" as="geometry" />
        </mxCell>
        <mxCell id="Pjg2e5uPfASdKVTmNV2D-67" value="" style="rounded=1;whiteSpace=wrap;html=1;fillColor=#299764;strokeColor=none;fontColor=#FFFFFF;align=center;verticalAlign=middle;fontFamily=Helvetica;fontSize=14;arcSize=6;fontStyle=1;" parent="Pjg2e5uPfASdKVTmNV2D-61" vertex="1">
          <mxGeometry x="470" y="1220" width="450" height="90" as="geometry" />
        </mxCell>
        <mxCell id="Pjg2e5uPfASdKVTmNV2D-68" value="Beans" style="rounded=1;whiteSpace=wrap;html=1;fillColor=#313641;fontColor=#FFFFFF;strokeColor=none;align=center;verticalAlign=middle;arcSize=17;fontFamily=Helvetica;fontSize=14;fontStyle=1;" parent="Pjg2e5uPfASdKVTmNV2D-61" vertex="1">
          <mxGeometry x="480" y="1250" width="100" height="40" as="geometry" />
        </mxCell>
        <mxCell id="Pjg2e5uPfASdKVTmNV2D-69" value="Core" style="rounded=1;whiteSpace=wrap;html=1;fillColor=#313641;fontColor=#FFFFFF;strokeColor=none;align=center;verticalAlign=middle;arcSize=17;fontFamily=Helvetica;fontSize=14;fontStyle=1;" parent="Pjg2e5uPfASdKVTmNV2D-61" vertex="1">
          <mxGeometry x="590" y="1250" width="100" height="40" as="geometry" />
        </mxCell>
        <mxCell id="Pjg2e5uPfASdKVTmNV2D-70" value="Context" style="rounded=1;whiteSpace=wrap;html=1;fillColor=#313641;fontColor=#FFFFFF;strokeColor=none;align=center;verticalAlign=middle;arcSize=17;fontFamily=Helvetica;fontSize=14;fontStyle=1;" parent="Pjg2e5uPfASdKVTmNV2D-61" vertex="1">
          <mxGeometry x="700" y="1250" width="100" height="40" as="geometry" />
        </mxCell>
        <mxCell id="Pjg2e5uPfASdKVTmNV2D-71" value="SpEL" style="rounded=1;whiteSpace=wrap;html=1;fillColor=#313641;fontColor=#FFFFFF;strokeColor=none;align=center;verticalAlign=middle;arcSize=17;fontFamily=Helvetica;fontSize=14;fontStyle=1;" parent="Pjg2e5uPfASdKVTmNV2D-61" vertex="1">
          <mxGeometry x="810" y="1250" width="100" height="40" as="geometry" />
        </mxCell>
        <mxCell id="Pjg2e5uPfASdKVTmNV2D-72" value="Core Container" style="text;html=1;align=center;verticalAlign=middle;resizable=0;points=[];autosize=1;strokeColor=none;fillColor=none;fontSize=14;fontColor=#FFFFFF;fontStyle=3;rounded=1;" parent="Pjg2e5uPfASdKVTmNV2D-61" vertex="1">
          <mxGeometry x="635" y="1220" width="120" height="30" as="geometry" />
        </mxCell>
        <mxCell id="Pjg2e5uPfASdKVTmNV2D-73" value="AOP" style="rounded=1;whiteSpace=wrap;html=1;fillColor=#313641;fontStyle=1;strokeColor=none;fontColor=#FFFFFF;fontSize=14;" parent="Pjg2e5uPfASdKVTmNV2D-61" vertex="1">
          <mxGeometry x="470" y="1330" width="220" height="40" as="geometry" />
        </mxCell>
        <mxCell id="Pjg2e5uPfASdKVTmNV2D-74" value="Instrumentation" style="rounded=1;whiteSpace=wrap;html=1;fillColor=#313641;fontStyle=1;strokeColor=none;fontColor=#FFFFFF;fontSize=14;" parent="Pjg2e5uPfASdKVTmNV2D-61" vertex="1">
          <mxGeometry x="700" y="1330" width="220" height="40" as="geometry" />
        </mxCell>
        <mxCell id="Pjg2e5uPfASdKVTmNV2D-75" value="Transactions" style="rounded=1;whiteSpace=wrap;html=1;fillColor=#313641;fontStyle=1;strokeColor=none;fontColor=#FFFFFF;fontSize=14;" parent="Pjg2e5uPfASdKVTmNV2D-61" vertex="1">
          <mxGeometry x="470" y="1380" width="220" height="40" as="geometry" />
        </mxCell>
        <mxCell id="Pjg2e5uPfASdKVTmNV2D-76" value="ORM" style="rounded=1;whiteSpace=wrap;html=1;fillColor=#313641;fontStyle=1;strokeColor=none;fontColor=#FFFFFF;fontSize=14;" parent="Pjg2e5uPfASdKVTmNV2D-61" vertex="1">
          <mxGeometry x="700" y="1380" width="220" height="40" as="geometry" />
        </mxCell>
        <mxCell id="Pjg2e5uPfASdKVTmNV2D-77" value="Spring Framework Runtime" style="text;html=1;align=center;verticalAlign=middle;resizable=0;points=[];autosize=1;strokeColor=none;fillColor=none;fontSize=12;fontStyle=3;fontColor=#FFFFFF;" parent="Pjg2e5uPfASdKVTmNV2D-61" vertex="1">
          <mxGeometry x="450" y="1130" width="170" height="30" as="geometry" />
        </mxCell>
        <mxCell id="Lj4fa0QAqTEDwXu7EgTQ-3" value="" style="rounded=1;whiteSpace=wrap;html=1;fillColor=#18794E;arcSize=4;strokeColor=none;fontColor=#FFFFFF;fontSize=14;" parent="Pjg2e5uPfASdKVTmNV2D-61" vertex="1">
          <mxGeometry x="450" y="1610" width="490" height="310" as="geometry" />
        </mxCell>
        <mxCell id="Lj4fa0QAqTEDwXu7EgTQ-4" value="Web" style="rounded=1;whiteSpace=wrap;html=1;fillColor=#313641;fontStyle=1;strokeColor=none;fontColor=#FFFFFF;fontSize=14;" parent="Pjg2e5uPfASdKVTmNV2D-61" vertex="1">
          <mxGeometry x="470" y="1640" width="450" height="40" as="geometry" />
        </mxCell>
        <mxCell id="Lj4fa0QAqTEDwXu7EgTQ-6" value="" style="rounded=1;whiteSpace=wrap;html=1;fillColor=#299764;strokeColor=none;fontColor=#FFFFFF;align=center;verticalAlign=middle;fontFamily=Helvetica;fontSize=14;arcSize=6;fontStyle=1;" parent="Pjg2e5uPfASdKVTmNV2D-61" vertex="1">
          <mxGeometry x="470" y="1700" width="450" height="90" as="geometry" />
        </mxCell>
        <mxCell id="Lj4fa0QAqTEDwXu7EgTQ-7" value="Beans" style="rounded=1;whiteSpace=wrap;html=1;fillColor=#313641;fontColor=#FFFFFF;strokeColor=none;align=center;verticalAlign=middle;arcSize=17;fontFamily=Helvetica;fontSize=14;fontStyle=1;" parent="Pjg2e5uPfASdKVTmNV2D-61" vertex="1">
          <mxGeometry x="480" y="1730" width="100" height="40" as="geometry" />
        </mxCell>
        <mxCell id="Lj4fa0QAqTEDwXu7EgTQ-8" value="Core" style="rounded=1;whiteSpace=wrap;html=1;fillColor=#313641;fontColor=#FFFFFF;strokeColor=none;align=center;verticalAlign=middle;arcSize=17;fontFamily=Helvetica;fontSize=14;fontStyle=1;" parent="Pjg2e5uPfASdKVTmNV2D-61" vertex="1">
          <mxGeometry x="590" y="1730" width="100" height="40" as="geometry" />
        </mxCell>
        <mxCell id="Lj4fa0QAqTEDwXu7EgTQ-9" value="Context" style="rounded=1;whiteSpace=wrap;html=1;fillColor=#313641;fontColor=#FFFFFF;strokeColor=none;align=center;verticalAlign=middle;arcSize=17;fontFamily=Helvetica;fontSize=14;fontStyle=1;" parent="Pjg2e5uPfASdKVTmNV2D-61" vertex="1">
          <mxGeometry x="700" y="1730" width="100" height="40" as="geometry" />
        </mxCell>
        <mxCell id="Lj4fa0QAqTEDwXu7EgTQ-10" value="SpEL" style="rounded=1;whiteSpace=wrap;html=1;fillColor=#313641;fontColor=#FFFFFF;strokeColor=none;align=center;verticalAlign=middle;arcSize=17;fontFamily=Helvetica;fontSize=14;fontStyle=1;" parent="Pjg2e5uPfASdKVTmNV2D-61" vertex="1">
          <mxGeometry x="810" y="1730" width="100" height="40" as="geometry" />
        </mxCell>
        <mxCell id="Lj4fa0QAqTEDwXu7EgTQ-11" value="Core Container" style="text;html=1;align=center;verticalAlign=middle;resizable=0;points=[];autosize=1;strokeColor=none;fillColor=none;fontSize=14;fontColor=#FFFFFF;fontStyle=3;rounded=1;" parent="Pjg2e5uPfASdKVTmNV2D-61" vertex="1">
          <mxGeometry x="635" y="1700" width="120" height="30" as="geometry" />
        </mxCell>
        <mxCell id="Lj4fa0QAqTEDwXu7EgTQ-12" value="AOP" style="rounded=1;whiteSpace=wrap;html=1;fillColor=#313641;fontStyle=1;strokeColor=none;fontColor=#FFFFFF;fontSize=14;" parent="Pjg2e5uPfASdKVTmNV2D-61" vertex="1">
          <mxGeometry x="470" y="1810" width="220" height="40" as="geometry" />
        </mxCell>
        <mxCell id="Lj4fa0QAqTEDwXu7EgTQ-13" value="Instrumentation" style="rounded=1;whiteSpace=wrap;html=1;fillColor=#313641;fontStyle=1;strokeColor=none;fontColor=#FFFFFF;fontSize=14;" parent="Pjg2e5uPfASdKVTmNV2D-61" vertex="1">
          <mxGeometry x="700" y="1810" width="220" height="40" as="geometry" />
        </mxCell>
        <mxCell id="Lj4fa0QAqTEDwXu7EgTQ-14" value="Transactions" style="rounded=1;whiteSpace=wrap;html=1;fillColor=#313641;fontStyle=1;strokeColor=none;fontColor=#FFFFFF;fontSize=14;" parent="Pjg2e5uPfASdKVTmNV2D-61" vertex="1">
          <mxGeometry x="470" y="1860" width="220" height="40" as="geometry" />
        </mxCell>
        <mxCell id="Lj4fa0QAqTEDwXu7EgTQ-15" value="ORM" style="rounded=1;whiteSpace=wrap;html=1;fillColor=#313641;fontStyle=1;strokeColor=none;fontColor=#FFFFFF;fontSize=14;" parent="Pjg2e5uPfASdKVTmNV2D-61" vertex="1">
          <mxGeometry x="700" y="1860" width="220" height="40" as="geometry" />
        </mxCell>
        <mxCell id="Lj4fa0QAqTEDwXu7EgTQ-16" value="Spring Framework Runtime" style="text;html=1;align=center;verticalAlign=middle;resizable=0;points=[];autosize=1;strokeColor=none;fillColor=none;fontSize=12;fontStyle=3;fontColor=#FFFFFF;" parent="Pjg2e5uPfASdKVTmNV2D-61" vertex="1">
          <mxGeometry x="450" y="1610" width="170" height="30" as="geometry" />
        </mxCell>
        <mxCell id="Lj4fa0QAqTEDwXu7EgTQ-29" value="" style="rounded=1;whiteSpace=wrap;html=1;fillColor=#18794E;arcSize=4;strokeColor=none;fontColor=#FFFFFF;fontSize=14;" parent="Pjg2e5uPfASdKVTmNV2D-61" vertex="1">
          <mxGeometry x="450" y="2090" width="490" height="260" as="geometry" />
        </mxCell>
        <mxCell id="Lj4fa0QAqTEDwXu7EgTQ-30" value="Web" style="rounded=1;whiteSpace=wrap;html=1;fillColor=#313641;fontStyle=1;strokeColor=none;fontColor=#FFFFFF;fontSize=14;" parent="Pjg2e5uPfASdKVTmNV2D-61" vertex="1">
          <mxGeometry x="470" y="2170" width="450" height="40" as="geometry" />
        </mxCell>
        <mxCell id="Lj4fa0QAqTEDwXu7EgTQ-31" value="" style="rounded=1;whiteSpace=wrap;html=1;fillColor=#299764;strokeColor=none;fontColor=#FFFFFF;align=center;verticalAlign=middle;fontFamily=Helvetica;fontSize=14;arcSize=6;fontStyle=1;" parent="Pjg2e5uPfASdKVTmNV2D-61" vertex="1">
          <mxGeometry x="470" y="2240" width="450" height="90" as="geometry" />
        </mxCell>
        <mxCell id="Lj4fa0QAqTEDwXu7EgTQ-32" value="Beans" style="rounded=1;whiteSpace=wrap;html=1;fillColor=#313641;fontColor=#FFFFFF;strokeColor=none;align=center;verticalAlign=middle;arcSize=17;fontFamily=Helvetica;fontSize=14;fontStyle=1;" parent="Pjg2e5uPfASdKVTmNV2D-61" vertex="1">
          <mxGeometry x="480" y="2270" width="100" height="40" as="geometry" />
        </mxCell>
        <mxCell id="Lj4fa0QAqTEDwXu7EgTQ-33" value="Core" style="rounded=1;whiteSpace=wrap;html=1;fillColor=#313641;fontColor=#FFFFFF;strokeColor=none;align=center;verticalAlign=middle;arcSize=17;fontFamily=Helvetica;fontSize=14;fontStyle=1;" parent="Pjg2e5uPfASdKVTmNV2D-61" vertex="1">
          <mxGeometry x="590" y="2270" width="100" height="40" as="geometry" />
        </mxCell>
        <mxCell id="Lj4fa0QAqTEDwXu7EgTQ-34" value="Context" style="rounded=1;whiteSpace=wrap;html=1;fillColor=#313641;fontColor=#FFFFFF;strokeColor=none;align=center;verticalAlign=middle;arcSize=17;fontFamily=Helvetica;fontSize=14;fontStyle=1;" parent="Pjg2e5uPfASdKVTmNV2D-61" vertex="1">
          <mxGeometry x="700" y="2270" width="100" height="40" as="geometry" />
        </mxCell>
        <mxCell id="Lj4fa0QAqTEDwXu7EgTQ-35" value="SpEL" style="rounded=1;whiteSpace=wrap;html=1;fillColor=#313641;fontColor=#FFFFFF;strokeColor=none;align=center;verticalAlign=middle;arcSize=17;fontFamily=Helvetica;fontSize=14;fontStyle=1;" parent="Pjg2e5uPfASdKVTmNV2D-61" vertex="1">
          <mxGeometry x="810" y="2270" width="100" height="40" as="geometry" />
        </mxCell>
        <mxCell id="Lj4fa0QAqTEDwXu7EgTQ-36" value="Core Container" style="text;html=1;align=center;verticalAlign=middle;resizable=0;points=[];autosize=1;strokeColor=none;fillColor=none;fontSize=14;fontColor=#FFFFFF;fontStyle=3;rounded=1;" parent="Pjg2e5uPfASdKVTmNV2D-61" vertex="1">
          <mxGeometry x="635" y="2240" width="120" height="30" as="geometry" />
        </mxCell>
        <mxCell id="Lj4fa0QAqTEDwXu7EgTQ-41" value="Spring Framework Runtime" style="text;html=1;align=center;verticalAlign=middle;resizable=0;points=[];autosize=1;strokeColor=none;fillColor=none;fontSize=12;fontStyle=3;fontColor=#FFFFFF;" parent="Pjg2e5uPfASdKVTmNV2D-61" vertex="1">
          <mxGeometry x="450" y="2090" width="170" height="30" as="geometry" />
        </mxCell>
        <mxCell id="Lj4fa0QAqTEDwXu7EgTQ-52" value="" style="rounded=1;whiteSpace=wrap;html=1;fillColor=#18794E;arcSize=4;strokeColor=none;fontColor=#FFFFFF;fontSize=14;" parent="Pjg2e5uPfASdKVTmNV2D-61" vertex="1">
          <mxGeometry x="450" y="2470" width="490" height="260" as="geometry" />
        </mxCell>
        <mxCell id="Lj4fa0QAqTEDwXu7EgTQ-54" value="" style="rounded=1;whiteSpace=wrap;html=1;fillColor=#299764;strokeColor=none;fontColor=#FFFFFF;align=center;verticalAlign=middle;fontFamily=Helvetica;fontSize=14;arcSize=6;fontStyle=1;" parent="Pjg2e5uPfASdKVTmNV2D-61" vertex="1">
          <mxGeometry x="470" y="2560" width="450" height="90" as="geometry" />
        </mxCell>
        <mxCell id="Lj4fa0QAqTEDwXu7EgTQ-55" value="Beans" style="rounded=1;whiteSpace=wrap;html=1;fillColor=#313641;fontColor=#FFFFFF;strokeColor=none;align=center;verticalAlign=middle;arcSize=17;fontFamily=Helvetica;fontSize=14;fontStyle=1;" parent="Pjg2e5uPfASdKVTmNV2D-61" vertex="1">
          <mxGeometry x="480" y="2590" width="100" height="40" as="geometry" />
        </mxCell>
        <mxCell id="Lj4fa0QAqTEDwXu7EgTQ-56" value="Core" style="rounded=1;whiteSpace=wrap;html=1;fillColor=#313641;fontColor=#FFFFFF;strokeColor=none;align=center;verticalAlign=middle;arcSize=17;fontFamily=Helvetica;fontSize=14;fontStyle=1;" parent="Pjg2e5uPfASdKVTmNV2D-61" vertex="1">
          <mxGeometry x="590" y="2590" width="100" height="40" as="geometry" />
        </mxCell>
        <mxCell id="Lj4fa0QAqTEDwXu7EgTQ-57" value="Context" style="rounded=1;whiteSpace=wrap;html=1;fillColor=#313641;fontColor=#FFFFFF;strokeColor=none;align=center;verticalAlign=middle;arcSize=17;fontFamily=Helvetica;fontSize=14;fontStyle=1;" parent="Pjg2e5uPfASdKVTmNV2D-61" vertex="1">
          <mxGeometry x="700" y="2590" width="100" height="40" as="geometry" />
        </mxCell>
        <mxCell id="Lj4fa0QAqTEDwXu7EgTQ-58" value="SpEL" style="rounded=1;whiteSpace=wrap;html=1;fillColor=#313641;fontColor=#FFFFFF;strokeColor=none;align=center;verticalAlign=middle;arcSize=17;fontFamily=Helvetica;fontSize=14;fontStyle=1;" parent="Pjg2e5uPfASdKVTmNV2D-61" vertex="1">
          <mxGeometry x="810" y="2590" width="100" height="40" as="geometry" />
        </mxCell>
        <mxCell id="Lj4fa0QAqTEDwXu7EgTQ-59" value="Core Container" style="text;html=1;align=center;verticalAlign=middle;resizable=0;points=[];autosize=1;strokeColor=none;fillColor=none;fontSize=14;fontColor=#FFFFFF;fontStyle=3;rounded=1;" parent="Pjg2e5uPfASdKVTmNV2D-61" vertex="1">
          <mxGeometry x="635" y="2560" width="120" height="30" as="geometry" />
        </mxCell>
        <mxCell id="Lj4fa0QAqTEDwXu7EgTQ-60" value="Spring Framework Runtime" style="text;html=1;align=center;verticalAlign=middle;resizable=0;points=[];autosize=1;strokeColor=none;fillColor=none;fontSize=12;fontStyle=3;fontColor=#FFFFFF;" parent="Pjg2e5uPfASdKVTmNV2D-61" vertex="1">
          <mxGeometry x="450" y="2470" width="170" height="30" as="geometry" />
        </mxCell>
        <mxCell id="Pjg2e5uPfASdKVTmNV2D-62" value="3" style="" parent="0" />
        <mxCell id="gOpEw_y_hM4aPBm2tubq-4" value="ORM Mappings&lt;div style=&quot;font-size: 12px;&quot;&gt;Custom DAO/Repositories&lt;/div&gt;" style="rounded=0;whiteSpace=wrap;html=1;fillColor=#b8272c;fontStyle=3;strokeColor=none;fontColor=#FFFFFF;fontSize=12;" parent="Pjg2e5uPfASdKVTmNV2D-62" vertex="1">
          <mxGeometry x="730" y="1430" width="170" height="40" as="geometry" />
        </mxCell>
        <mxCell id="Pjg2e5uPfASdKVTmNV2D-79" value="Sending&lt;div style=&quot;font-size: 12px;&quot;&gt;Email&lt;/div&gt;" style="rounded=0;whiteSpace=wrap;html=1;fillColor=#b8272c;fontStyle=3;strokeColor=none;fontColor=#FFFFFF;fontSize=12;" parent="Pjg2e5uPfASdKVTmNV2D-62" vertex="1">
          <mxGeometry x="380" y="1240" width="80" height="60" as="geometry" />
        </mxCell>
        <mxCell id="Pjg2e5uPfASdKVTmNV2D-80" value="Remote&lt;div style=&quot;font-size: 12px;&quot;&gt;Access&lt;/div&gt;" style="rounded=0;whiteSpace=wrap;html=1;fillColor=#b8272c;fontStyle=3;strokeColor=none;fontColor=#FFFFFF;fontSize=12;" parent="Pjg2e5uPfASdKVTmNV2D-62" vertex="1">
          <mxGeometry x="930" y="1240" width="80" height="60" as="geometry" />
        </mxCell>
        <mxCell id="Pjg2e5uPfASdKVTmNV2D-81" value="Form&lt;div style=&quot;font-size: 12px;&quot;&gt;Controllers&lt;/div&gt;" style="rounded=0;whiteSpace=wrap;html=1;fillColor=#b8272c;fontStyle=3;strokeColor=none;fontColor=#FFFFFF;fontSize=12;" parent="Pjg2e5uPfASdKVTmNV2D-62" vertex="1">
          <mxGeometry x="470" y="1070" width="100" height="60" as="geometry" />
        </mxCell>
        <mxCell id="Pjg2e5uPfASdKVTmNV2D-82" value="Multipart&lt;div style=&quot;font-size: 12px;&quot;&gt;Resolver&lt;/div&gt;" style="rounded=0;whiteSpace=wrap;html=1;fillColor=#b8272c;fontStyle=3;strokeColor=none;fontColor=#FFFFFF;fontSize=12;" parent="Pjg2e5uPfASdKVTmNV2D-62" vertex="1">
          <mxGeometry x="587" y="1070" width="100" height="60" as="geometry" />
        </mxCell>
        <mxCell id="Pjg2e5uPfASdKVTmNV2D-83" value="Dynamic&lt;div style=&quot;font-size: 12px;&quot;&gt;Binding to&lt;/div&gt;&lt;div style=&quot;font-size: 12px;&quot;&gt;Domain Model&lt;/div&gt;" style="rounded=0;whiteSpace=wrap;html=1;fillColor=#b8272c;fontStyle=3;strokeColor=none;fontColor=#FFFFFF;fontSize=12;" parent="Pjg2e5uPfASdKVTmNV2D-62" vertex="1">
          <mxGeometry x="703" y="1070" width="100" height="60" as="geometry" />
        </mxCell>
        <mxCell id="Pjg2e5uPfASdKVTmNV2D-84" value="Integration&lt;div style=&quot;font-size: 12px;&quot;&gt;with JSP,&lt;/div&gt;&lt;div style=&quot;font-size: 12px;&quot;&gt;Velocity, SLT.&lt;/div&gt;&lt;div style=&quot;font-size: 12px;&quot;&gt;PDF, Excel&lt;/div&gt;" style="rounded=0;whiteSpace=wrap;html=1;fillColor=#b8272c;fontStyle=3;strokeColor=none;fontColor=#FFFFFF;fontSize=12;" parent="Pjg2e5uPfASdKVTmNV2D-62" vertex="1">
          <mxGeometry x="820" y="1070" width="100" height="60" as="geometry" />
        </mxCell>
        <mxCell id="gOpEw_y_hM4aPBm2tubq-1" value="WebApplication Context" style="rounded=0;whiteSpace=wrap;html=1;fillColor=#b8272c;fontStyle=3;strokeColor=none;fontColor=#FFFFFF;fontSize=12;" parent="Pjg2e5uPfASdKVTmNV2D-62" vertex="1">
          <mxGeometry x="610" y="1150" width="170" height="30" as="geometry" />
        </mxCell>
        <mxCell id="gOpEw_y_hM4aPBm2tubq-2" value="Custom domain logic" style="rounded=0;whiteSpace=wrap;html=1;fillColor=#b8272c;fontStyle=3;strokeColor=none;fontColor=#FFFFFF;fontSize=12;" parent="Pjg2e5uPfASdKVTmNV2D-62" vertex="1">
          <mxGeometry x="610" y="1300" width="170" height="40" as="geometry" />
        </mxCell>
        <mxCell id="gOpEw_y_hM4aPBm2tubq-3" value="Declarative Transactions&lt;div style=&quot;font-size: 12px;&quot;&gt;for POJOs&lt;/div&gt;" style="rounded=0;whiteSpace=wrap;html=1;fillColor=#b8272c;fontStyle=3;strokeColor=none;fontColor=#FFFFFF;fontSize=12;" parent="Pjg2e5uPfASdKVTmNV2D-62" vertex="1">
          <mxGeometry x="550" y="1410" width="170" height="40" as="geometry" />
        </mxCell>
        <mxCell id="Lj4fa0QAqTEDwXu7EgTQ-17" value="ORM Mappings&lt;div style=&quot;font-size: 12px;&quot;&gt;Custom DAO/Repositories&lt;/div&gt;" style="rounded=0;whiteSpace=wrap;html=1;fillColor=#b8272c;fontStyle=3;strokeColor=none;fontColor=#FFFFFF;fontSize=12;" parent="Pjg2e5uPfASdKVTmNV2D-62" vertex="1">
          <mxGeometry x="730" y="1910" width="170" height="40" as="geometry" />
        </mxCell>
        <mxCell id="Lj4fa0QAqTEDwXu7EgTQ-20" value="Web frontend using&lt;div&gt;Struts or Tapestry&lt;/div&gt;" style="rounded=0;whiteSpace=wrap;html=1;fillColor=#b8272c;fontStyle=3;strokeColor=none;fontColor=#FFFFFF;fontSize=12;" parent="Pjg2e5uPfASdKVTmNV2D-62" vertex="1">
          <mxGeometry x="610" y="1550" width="170" height="60" as="geometry" />
        </mxCell>
        <mxCell id="Lj4fa0QAqTEDwXu7EgTQ-24" value="WebApplication Context" style="rounded=0;whiteSpace=wrap;html=1;fillColor=#b8272c;fontStyle=3;strokeColor=none;fontColor=#FFFFFF;fontSize=12;" parent="Pjg2e5uPfASdKVTmNV2D-62" vertex="1">
          <mxGeometry x="610" y="1630" width="170" height="30" as="geometry" />
        </mxCell>
        <mxCell id="Lj4fa0QAqTEDwXu7EgTQ-25" value="Custom domain logic" style="rounded=0;whiteSpace=wrap;html=1;fillColor=#b8272c;fontStyle=3;strokeColor=none;fontColor=#FFFFFF;fontSize=12;" parent="Pjg2e5uPfASdKVTmNV2D-62" vertex="1">
          <mxGeometry x="610" y="1780" width="170" height="40" as="geometry" />
        </mxCell>
        <mxCell id="Lj4fa0QAqTEDwXu7EgTQ-26" value="Declarative Transactions&lt;div style=&quot;font-size: 12px;&quot;&gt;for POJOs&lt;/div&gt;" style="rounded=0;whiteSpace=wrap;html=1;fillColor=#b8272c;fontStyle=3;strokeColor=none;fontColor=#FFFFFF;fontSize=12;" parent="Pjg2e5uPfASdKVTmNV2D-62" vertex="1">
          <mxGeometry x="550" y="1890" width="170" height="40" as="geometry" />
        </mxCell>
        <mxCell id="Lj4fa0QAqTEDwXu7EgTQ-43" value="JAX RPC Client" style="rounded=0;whiteSpace=wrap;html=1;fillColor=#b8272c;fontStyle=3;strokeColor=none;fontColor=#FFFFFF;fontSize=12;" parent="Pjg2e5uPfASdKVTmNV2D-62" vertex="1">
          <mxGeometry x="420" y="2000" width="110" height="50" as="geometry" />
        </mxCell>
        <mxCell id="Lj4fa0QAqTEDwXu7EgTQ-44" value="Transparent Remote Access" style="rounded=0;whiteSpace=wrap;html=1;fillColor=#b8272c;fontStyle=3;strokeColor=none;fontColor=#FFFFFF;fontSize=12;" parent="Pjg2e5uPfASdKVTmNV2D-62" vertex="1">
          <mxGeometry x="600" y="2125" width="190" height="50" as="geometry" />
        </mxCell>
        <mxCell id="Lj4fa0QAqTEDwXu7EgTQ-45" value="Custom domain logic" style="rounded=0;whiteSpace=wrap;html=1;fillColor=#b8272c;fontStyle=3;strokeColor=none;fontColor=#FFFFFF;fontSize=12;" parent="Pjg2e5uPfASdKVTmNV2D-62" vertex="1">
          <mxGeometry x="600" y="2205" width="190" height="40" as="geometry" />
        </mxCell>
        <mxCell id="Lj4fa0QAqTEDwXu7EgTQ-47" value="Hessian Client" style="rounded=0;whiteSpace=wrap;html=1;fillColor=#b8272c;fontStyle=3;strokeColor=none;fontColor=#FFFFFF;fontSize=12;" parent="Pjg2e5uPfASdKVTmNV2D-62" vertex="1">
          <mxGeometry x="567" y="2000" width="110" height="50" as="geometry" />
        </mxCell>
        <mxCell id="Lj4fa0QAqTEDwXu7EgTQ-48" value="Burlap Client" style="rounded=0;whiteSpace=wrap;html=1;fillColor=#b8272c;fontStyle=3;strokeColor=none;fontColor=#FFFFFF;fontSize=12;" parent="Pjg2e5uPfASdKVTmNV2D-62" vertex="1">
          <mxGeometry x="713" y="2000" width="110" height="50" as="geometry" />
        </mxCell>
        <mxCell id="Lj4fa0QAqTEDwXu7EgTQ-49" value="RMI Client" style="rounded=0;whiteSpace=wrap;html=1;fillColor=#b8272c;fontStyle=3;strokeColor=none;fontColor=#FFFFFF;fontSize=12;" parent="Pjg2e5uPfASdKVTmNV2D-62" vertex="1">
          <mxGeometry x="860" y="2000" width="110" height="50" as="geometry" />
        </mxCell>
        <mxCell id="Lj4fa0QAqTEDwXu7EgTQ-61" value="EJB Access Layer&lt;div&gt;(using SlsbInvokers)&lt;/div&gt;" style="rounded=0;whiteSpace=wrap;html=1;fillColor=#b8272c;fontStyle=3;strokeColor=none;fontColor=#FFFFFF;fontSize=12;" parent="Pjg2e5uPfASdKVTmNV2D-62" vertex="1">
          <mxGeometry x="510" y="2505" width="190" height="60" as="geometry" />
        </mxCell>
        <mxCell id="Lj4fa0QAqTEDwXu7EgTQ-62" value="Spring-managed EJBs&lt;div&gt;(using AbstractEnterpriseBean)&lt;/div&gt;" style="rounded=0;whiteSpace=wrap;html=1;fillColor=#b8272c;fontStyle=3;strokeColor=none;fontColor=#FFFFFF;fontSize=12;" parent="Pjg2e5uPfASdKVTmNV2D-62" vertex="1">
          <mxGeometry x="600" y="2640" width="210" height="60" as="geometry" />
        </mxCell>
      </root>
    </mxGraphModel>
  </diagram>
</mxfile>
